<svg width="70" height="42" viewBox="0 0 70 42" fill="none" xmlns="http://www.w3.org/2000/svg">
<path d="M44.7832 3.88098H25.8561V36.8976H44.7832V3.88098Z" fill="#FF5F00"/>
<path d="M26.7382 21C26.7382 14.2917 29.9828 8.34167 34.97 4.49167C31.3047 1.69167 26.6781 0 21.6309 0C9.67382 0 0 9.39167 0 21C0 32.6083 9.67382 42 21.6309 42C26.6781 42 31.3047 40.3083 34.97 37.5083C29.9828 33.7167 26.7382 27.7083 26.7382 21Z" fill="#EB001B"/>
<path d="M69.8764 20.9994C69.8764 32.6077 60.2026 41.9994 48.2456 41.9994C43.1983 41.9994 38.5717 40.3077 34.9065 37.5077C39.9537 33.6577 43.1383 27.7077 43.1383 20.9994C43.1383 14.2911 39.8936 8.34106 34.9065 4.49106C38.5717 1.69106 43.1983 -0.000610352 48.2456 -0.000610352C60.2026 -0.000610352 69.8764 9.44939 69.8764 20.9994Z" fill="#F79E1B"/>
</svg>
